<svg width="8" height="15" viewBox="0 0 8 15" fill="none" xmlns="http://www.w3.org/2000/svg">
<path d="M1.16984 -3.09609e-05C1.31923 -0.000539282 1.46684 0.032433 1.60182 0.0964618C1.7368 0.16049 1.85572 0.25395 1.94984 0.36997L6.77984 6.36997C6.92692 6.5489 7.00732 6.77334 7.00732 7.00497C7.00732 7.23659 6.92692 7.46104 6.77984 7.63997L1.77984 13.64C1.6101 13.8442 1.36619 13.9726 1.10176 13.997C0.837334 14.0214 0.574053 13.9397 0.369836 13.77C0.16562 13.6002 0.0371956 13.3563 0.0128159 13.0919C-0.0115639 12.8275 0.0700973 12.5642 0.239836 12.36L4.70984 6.99997L0.389836 1.63997C0.267553 1.49318 0.189875 1.31444 0.165996 1.12489C0.142116 0.935346 0.173033 0.742921 0.255089 0.570394C0.337145 0.397867 0.466905 0.252455 0.629015 0.151365C0.791126 0.0502744 0.978801 -0.00226254 1.16984 -3.09609e-05Z" fill="#C4C4C4"/>
</svg>
