<svg width="10" height="10" viewBox="0 0 10 10" fill="none" xmlns="http://www.w3.org/2000/svg">
<path d="M5.56185 4.50307L8.78685 1.28557C8.92808 1.14434 9.00742 0.952795 9.00742 0.753069C9.00742 0.553343 8.92808 0.361797 8.78685 0.220569C8.64562 0.079341 8.45407 0 8.25435 0C8.05462 0 7.86308 0.079341 7.72185 0.220569L4.50435 3.44557L1.28685 0.220569C1.14562 0.079341 0.954075 -1.48808e-09 0.754349 0C0.554623 1.48808e-09 0.363077 0.079341 0.221849 0.220569C0.0806209 0.361797 0.00127995 0.553343 0.00127995 0.753069C0.00127995 0.952795 0.0806209 1.14434 0.221849 1.28557L3.44685 4.50307L0.221849 7.72057C0.151552 7.79029 0.0957569 7.87324 0.0576804 7.96464C0.0196039 8.05603 0 8.15406 0 8.25307C0 8.35208 0.0196039 8.45011 0.0576804 8.5415C0.0957569 8.6329 0.151552 8.71585 0.221849 8.78557C0.291571 8.85586 0.374522 8.91166 0.465916 8.94974C0.557311 8.98781 0.65534 9.00742 0.754349 9.00742C0.853358 9.00742 0.951387 8.98781 1.04278 8.94974C1.13418 8.91166 1.21713 8.85586 1.28685 8.78557L4.50435 5.56057L7.72185 8.78557C7.79157 8.85586 7.87452 8.91166 7.96592 8.94974C8.05731 8.98781 8.15534 9.00742 8.25435 9.00742C8.35336 9.00742 8.45139 8.98781 8.54278 8.94974C8.63418 8.91166 8.71713 8.85586 8.78685 8.78557C8.85714 8.71585 8.91294 8.6329 8.95102 8.5415C8.98909 8.45011 9.0087 8.35208 9.0087 8.25307C9.0087 8.15406 8.98909 8.05603 8.95102 7.96464C8.91294 7.87324 8.85714 7.79029 8.78685 7.72057L5.56185 4.50307Z" fill="white"/>
</svg>
