<svg width="37" height="34" viewBox="0 0 37 34" fill="none" xmlns="http://www.w3.org/2000/svg">
<path d="M6.07701 30.5924C3.65275 28.168 2.00184 25.0792 1.33303 21.7166C0.664228 18.3539 1.00757 14.8685 2.31964 11.701C3.63171 8.53348 5.85359 5.82617 8.70429 3.92142C11.555 2.01666 14.9065 1 18.335 1C21.7635 1 25.115 2.01666 27.9657 3.92142C30.8164 5.82617 33.0383 8.53348 34.3504 11.701C35.6625 14.8685 36.0058 18.3539 35.337 21.7166C34.6682 25.0792 33.0173 28.168 30.593 30.5924C29.8234 31.3626 28.9096 31.9736 27.9037 32.3904C26.8979 32.8073 25.8198 33.0218 24.731 33.0218C23.6422 33.0218 22.5641 32.8073 21.5583 32.3904C20.5524 31.9736 19.6386 31.3626 18.869 30.5924L12.469 24.1924C12.185 23.9165 11.8039 23.7634 11.408 23.7662C11.0121 23.7691 10.6332 23.9276 10.3532 24.2076C10.0732 24.4875 9.9147 24.8665 9.91186 25.2624C9.90902 25.6583 10.0621 26.0394 10.338 26.3234C10.9034 26.8888 11.2211 27.6557 11.2211 28.4554C11.2211 29.255 10.9034 30.022 10.338 30.5874C9.77257 31.1528 9.00566 31.4705 8.206 31.4705C7.40635 31.4705 6.63946 31.1528 6.07402 30.5874L6.07701 30.5924Z" stroke="black" stroke-linecap="round" stroke-linejoin="round"/>
<path d="M26.3259 12.4723C26.0096 12.7878 25.6069 13.0025 25.1686 13.0893C24.7304 13.176 24.2762 13.131 23.8636 12.9597C23.4509 12.7885 23.0983 12.4989 22.8502 12.1273C22.6021 11.7558 22.4697 11.3191 22.4697 10.8723C22.4697 10.4256 22.6021 9.98884 22.8502 9.6173C23.0983 9.24577 23.4509 8.95609 23.8636 8.78487C24.2762 8.61366 24.7304 8.56857 25.1686 8.65533C25.6069 8.74208 26.0096 8.95678 26.3259 9.2723C26.5361 9.48237 26.7028 9.7318 26.8166 10.0063C26.9303 10.2809 26.9889 10.5751 26.9889 10.8723C26.9889 11.1695 26.9303 11.4637 26.8166 11.7383C26.7028 12.0128 26.5361 12.2622 26.3259 12.4723V12.4723Z" stroke="black" stroke-linecap="round" stroke-linejoin="round"/>
<path d="M28.8859 19.8404C29.7182 19.8404 30.3929 19.1657 30.3929 18.3334C30.3929 17.5011 29.7182 16.8264 28.8859 16.8264C28.0536 16.8264 27.3789 17.5011 27.3789 18.3334C27.3789 19.1657 28.0536 19.8404 28.8859 19.8404Z" stroke="black" stroke-linecap="round" stroke-linejoin="round"/>
<path d="M22.5983 27.9313C22.1766 27.5097 21.8893 26.9725 21.7729 26.3876C21.6564 25.8027 21.7161 25.1964 21.9442 24.6454C22.1724 24.0945 22.5588 23.6235 23.0547 23.2921C23.5505 22.9608 24.1335 22.7839 24.7299 22.7839C25.3262 22.7839 25.9092 22.9608 26.405 23.2921C26.9009 23.6235 27.2873 24.0945 27.5155 24.6454C27.7436 25.1964 27.8033 25.8027 27.6868 26.3876C27.5704 26.9725 27.2831 27.5097 26.8614 27.9313C26.2953 28.4952 25.5289 28.8119 24.7299 28.8119C23.9308 28.8119 23.1644 28.4952 22.5983 27.9313V27.9313Z" stroke="black" stroke-linecap="round" stroke-linejoin="round"/>
<path d="M17.2682 7.67538C17.5837 7.99167 17.7984 8.39436 17.8852 8.83261C17.9719 9.27086 17.9269 9.72499 17.7557 10.1376C17.5844 10.5503 17.2948 10.9029 16.9232 11.151C16.5517 11.3991 16.115 11.5315 15.6682 11.5315C15.2215 11.5315 14.7847 11.3991 14.4132 11.151C14.0416 10.9029 13.752 10.5503 13.5808 10.1376C13.4096 9.72499 13.3645 9.27086 13.4512 8.83261C13.538 8.39436 13.7527 7.99167 14.0682 7.67538C14.2779 7.46458 14.5273 7.29731 14.8018 7.18317C15.0764 7.06902 15.3708 7.01025 15.6682 7.01025C15.9656 7.01025 16.26 7.06902 16.5346 7.18317C16.8092 7.29731 17.0585 7.46458 17.2682 7.67538Z" stroke="black" stroke-linecap="round" stroke-linejoin="round"/>
</svg>
