<svg width="16" height="16" viewBox="0 0 16 16" fill="none" xmlns="http://www.w3.org/2000/svg">
<path d="M9.76291 7.99999L15.1379 2.63749C15.3733 2.40211 15.5055 2.08286 15.5055 1.74999C15.5055 1.41711 15.3733 1.09787 15.1379 0.862488C14.9025 0.627108 14.5833 0.494873 14.2504 0.494873C13.9175 0.494873 13.5983 0.627108 13.3629 0.862488L8.00041 6.23749L2.63791 0.862488C2.40253 0.627108 2.08329 0.494873 1.75041 0.494873C1.41753 0.494873 1.09829 0.627108 0.862912 0.862488C0.627532 1.09787 0.495297 1.41711 0.495297 1.74999C0.495297 2.08286 0.627532 2.40211 0.862912 2.63749L6.23791 7.99999L0.862912 13.3625C0.745751 13.4787 0.652759 13.6169 0.589298 13.7693C0.525837 13.9216 0.493164 14.085 0.493164 14.25C0.493164 14.415 0.525837 14.5784 0.589298 14.7307C0.652759 14.883 0.745751 15.0213 0.862912 15.1375C0.979116 15.2546 1.11737 15.3476 1.26969 15.4111C1.42202 15.4746 1.5854 15.5072 1.75041 15.5072C1.91543 15.5072 2.07881 15.4746 2.23113 15.4111C2.38346 15.3476 2.52171 15.2546 2.63791 15.1375L8.00041 9.76249L13.3629 15.1375C13.4791 15.2546 13.6174 15.3476 13.7697 15.4111C13.922 15.4746 14.0854 15.5072 14.2504 15.5072C14.4154 15.5072 14.5788 15.4746 14.7311 15.4111C14.8835 15.3476 15.0217 15.2546 15.1379 15.1375C15.2551 15.0213 15.3481 14.883 15.4115 14.7307C15.475 14.5784 15.5077 14.415 15.5077 14.25C15.5077 14.085 15.475 13.9216 15.4115 13.7693C15.3481 13.6169 15.2551 13.4787 15.1379 13.3625L9.76291 7.99999Z" fill="#710000"/>
</svg>
