<svg width="27" height="27" viewBox="0 0 27 27" fill="none" xmlns="http://www.w3.org/2000/svg">
<path d="M8.9834 17.9832L17.9834 8.98315" stroke="#710000" stroke-width="2" stroke-linecap="round" stroke-linejoin="round"/>
<path d="M9.7334 11.4832C10.6999 11.4832 11.4834 10.6997 11.4834 9.73315C11.4834 8.76666 10.6999 7.98315 9.7334 7.98315C8.7669 7.98315 7.9834 8.76666 7.9834 9.73315C7.9834 10.6997 8.7669 11.4832 9.7334 11.4832Z" stroke="#710000" stroke-width="2" stroke-linecap="round" stroke-linejoin="round"/>
<path d="M17.2334 18.9832C18.1999 18.9832 18.9834 18.1997 18.9834 17.2332C18.9834 16.2667 18.1999 15.4832 17.2334 15.4832C16.2669 15.4832 15.4834 16.2667 15.4834 17.2332C15.4834 18.1997 16.2669 18.9832 17.2334 18.9832Z" stroke="#710000" stroke-width="2" stroke-linecap="round" stroke-linejoin="round"/>
<mask id="path-4-inside-1" fill="white">
<path d="M2.98311 6.28311C2.98311 5.4079 3.33079 4.56853 3.94966 3.94966C4.56853 3.33079 5.4079 2.98311 6.28311 2.98311H7.78311C8.65446 2.98262 9.49025 2.63752 10.1081 2.02311L11.1581 0.973114C11.4648 0.664714 11.8294 0.419977 12.231 0.252975C12.6326 0.0859724 13.0632 0 13.4981 0C13.933 0 14.3637 0.0859724 14.7653 0.252975C15.1668 0.419977 15.5314 0.664714 15.8381 0.973114L16.8881 2.02311C17.506 2.63752 18.3418 2.98262 19.2131 2.98311H20.7131C21.5883 2.98311 22.4277 3.33079 23.0466 3.94966C23.6654 4.56853 24.0131 5.4079 24.0131 6.28311V7.78311C24.0136 8.65446 24.3587 9.49025 24.9731 10.1081L26.0231 11.1581C26.3315 11.4648 26.5763 11.8294 26.7433 12.231C26.9103 12.6326 26.9962 13.0632 26.9962 13.4981C26.9962 13.933 26.9103 14.3637 26.7433 14.7653C26.5763 15.1668 26.3315 15.5314 26.0231 15.8381L24.9731 16.8881C24.3587 17.506 24.0136 18.3418 24.0131 19.2131V20.7131C24.0131 21.5883 23.6654 22.4277 23.0466 23.0466C22.4277 23.6654 21.5883 24.0131 20.7131 24.0131H19.2131C18.3418 24.0136 17.506 24.3587 16.8881 24.9731L15.8381 26.0231C15.5314 26.3315 15.1668 26.5763 14.7653 26.7433C14.3637 26.9103 13.933 26.9962 13.4981 26.9962C13.0632 26.9962 12.6326 26.9103 12.231 26.7433C11.8294 26.5763 11.4648 26.3315 11.1581 26.0231L10.1081 24.9731C9.49025 24.3587 8.65446 24.0136 7.78311 24.0131H6.28311C5.4079 24.0131 4.56853 23.6654 3.94966 23.0466C3.33079 22.4277 2.98311 21.5883 2.98311 20.7131V19.2131C2.98262 18.3418 2.63752 17.506 2.02311 16.8881L0.973114 15.8381C0.664714 15.5314 0.419977 15.1668 0.252975 14.7653C0.0859724 14.3637 0 13.933 0 13.4981C0 13.0632 0.0859724 12.6326 0.252975 12.231C0.419977 11.8294 0.664714 11.4648 0.973114 11.1581L2.02311 10.1081C2.63752 9.49025 2.98262 8.65446 2.98311 7.78311V6.28311Z"/>
</mask>
<path d="M0.983114 6.28311C0.983114 7.38768 1.87854 8.28311 2.98311 8.28311C4.08768 8.28311 4.98311 7.38768 4.98311 6.28311H0.983114ZM6.28311 2.98311L6.28311 0.983114L6.28311 2.98311ZM7.78311 2.98311V4.98311L7.78426 4.98311L7.78311 2.98311ZM10.1081 2.02311L11.5184 3.4413L11.5223 3.43733L10.1081 2.02311ZM11.1581 0.973114L12.5723 2.38733L12.5763 2.38335L11.1581 0.973114ZM13.4981 0V-2V0ZM15.8381 0.973114L14.4199 2.38335L14.4239 2.38733L15.8381 0.973114ZM16.8881 2.02311L15.4739 3.43733L15.4779 3.4413L16.8881 2.02311ZM19.2131 2.98311L19.212 4.98311H19.2131V2.98311ZM20.7131 2.98311V0.983114V2.98311ZM24.0131 7.78311H22.0131V7.78426L24.0131 7.78311ZM24.9731 10.1081L23.5549 11.5184L23.5589 11.5223L24.9731 10.1081ZM26.0231 11.1581L24.6089 12.5723L24.6129 12.5763L26.0231 11.1581ZM26.0231 15.8381L24.6129 14.4199L24.6089 14.4239L26.0231 15.8381ZM24.9731 16.8881L23.5589 15.4739L23.5549 15.4779L24.9731 16.8881ZM24.0131 19.2131L22.0131 19.212V19.2131H24.0131ZM19.2131 24.0131V22.0131H19.212L19.2131 24.0131ZM16.8881 24.9731L15.4779 23.5549L15.4739 23.5589L16.8881 24.9731ZM15.8381 26.0231L14.4239 24.6089L14.4199 24.6129L15.8381 26.0231ZM11.1581 26.0231L12.5763 24.6129L12.5723 24.6089L11.1581 26.0231ZM10.1081 24.9731L11.5223 23.5589L11.5183 23.5549L10.1081 24.9731ZM7.78311 24.0131L7.78426 22.0131H7.78311V24.0131ZM2.98311 20.7131H0.983114H2.98311ZM2.98311 19.2131H4.98311L4.98311 19.212L2.98311 19.2131ZM2.02311 16.8881L3.4413 15.4779L3.43733 15.4739L2.02311 16.8881ZM0.973114 15.8381L2.38733 14.4239L2.38335 14.4199L0.973114 15.8381ZM0 13.4981H-2H0ZM0.973114 11.1581L2.38335 12.5763L2.38733 12.5723L0.973114 11.1581ZM2.02311 10.1081L3.43733 11.5223L3.4413 11.5183L2.02311 10.1081ZM2.98311 7.78311L4.98311 7.78426V7.78311H2.98311ZM4.98311 6.28311C4.98311 5.17854 4.08768 4.28311 2.98311 4.28311C1.87854 4.28311 0.983114 5.17854 0.983114 6.28311H4.98311ZM4.98311 6.28311C4.98311 5.93833 5.12008 5.60767 5.36387 5.36387L2.53545 2.53545C1.54151 3.52939 0.983114 4.87746 0.983114 6.28311H4.98311ZM5.36387 5.36387C5.60767 5.12008 5.93833 4.98311 6.28311 4.98311L6.28311 0.983114C4.87746 0.983114 3.52939 1.54151 2.53545 2.53545L5.36387 5.36387ZM6.28311 4.98311H7.78311V0.983114H6.28311V4.98311ZM7.78426 4.98311C9.18369 4.98231 10.526 4.42806 11.5183 3.4413L8.69788 0.604932C8.45448 0.846969 8.12523 0.982918 7.78197 0.983114L7.78426 4.98311ZM11.5223 3.43733L12.5723 2.38733L9.7439 -0.4411L8.6939 0.6089L11.5223 3.43733ZM12.5763 2.38335C12.6971 2.26186 12.8407 2.16545 12.9989 2.09966L11.463 -1.59371C10.818 -1.32549 10.2325 -0.932429 9.73993 -0.43712L12.5763 2.38335ZM12.9989 2.09966C13.1571 2.03387 13.3268 2 13.4981 2V-2C12.7996 -2 12.108 -1.86192 11.463 -1.59371L12.9989 2.09966ZM13.4981 2C13.6694 2 13.8391 2.03387 13.9973 2.09966L15.5332 -1.59371C14.8882 -1.86192 14.1966 -2 13.4981 -2V2ZM13.9973 2.09966C14.1555 2.16545 14.2991 2.26186 14.4199 2.38335L17.2563 -0.43712C16.7638 -0.93243 16.1782 -1.32549 15.5332 -1.59371L13.9973 2.09966ZM14.4239 2.38733L15.4739 3.43733L18.3023 0.608899L17.2523 -0.441101L14.4239 2.38733ZM15.4779 3.4413C16.4702 4.42806 17.8125 4.98231 19.212 4.98311L19.2143 0.983114C18.871 0.982918 18.5418 0.84697 18.2983 0.604932L15.4779 3.4413ZM19.2131 4.98311H20.7131V0.983114H19.2131V4.98311ZM20.7131 4.98311C21.0579 4.98311 21.3886 5.12008 21.6324 5.36387L24.4608 2.53545C23.4668 1.54151 22.1188 0.983114 20.7131 0.983114V4.98311ZM21.6324 5.36387C21.8762 5.60767 22.0131 5.93833 22.0131 6.28311H26.0131C26.0131 4.87746 25.4547 3.52939 24.4608 2.53545L21.6324 5.36387ZM22.0131 6.28311V7.78311H26.0131V6.28311H22.0131ZM22.0131 7.78426C22.0139 9.18369 22.5682 10.526 23.5549 11.5183L26.3913 8.69788C26.1493 8.45448 26.0133 8.12523 26.0131 7.78197L22.0131 7.78426ZM23.5589 11.5223L24.6089 12.5723L27.4373 9.7439L26.3873 8.6939L23.5589 11.5223ZM24.6129 12.5763C24.7344 12.6971 24.8308 12.8407 24.8966 12.9989L28.5899 11.463C28.3217 10.8181 27.9287 10.2325 27.4333 9.73993L24.6129 12.5763ZM24.8966 12.9989C24.9624 13.1571 24.9962 13.3268 24.9962 13.4981H28.9962C28.9962 12.7996 28.8581 12.108 28.5899 11.463L24.8966 12.9989ZM24.9962 13.4981C24.9962 13.6694 24.9624 13.8391 24.8966 13.9973L28.5899 15.5332C28.8581 14.8883 28.9962 14.1966 28.9962 13.4981H24.9962ZM24.8966 13.9973C24.8308 14.1555 24.7344 14.2991 24.6129 14.4199L27.4333 17.2563C27.9287 16.7638 28.3217 16.1782 28.5899 15.5332L24.8966 13.9973ZM24.6089 14.4239L23.5589 15.4739L26.3873 18.3023L27.4373 17.2523L24.6089 14.4239ZM23.5549 15.4779C22.5682 16.4702 22.0139 17.8125 22.0131 19.212L26.0131 19.2143C26.0133 18.871 26.1493 18.5417 26.3913 18.2983L23.5549 15.4779ZM22.0131 19.2131V20.7131H26.0131V19.2131H22.0131ZM22.0131 20.7131C22.0131 21.0579 21.8762 21.3886 21.6324 21.6324L24.4608 24.4608C25.4547 23.4668 26.0131 22.1188 26.0131 20.7131H22.0131ZM21.6324 21.6324C21.3886 21.8762 21.0579 22.0131 20.7131 22.0131V26.0131C22.1188 26.0131 23.4668 25.4547 24.4608 24.4608L21.6324 21.6324ZM20.7131 22.0131H19.2131V26.0131H20.7131V22.0131ZM19.212 22.0131C17.8125 22.0139 16.4702 22.5682 15.4779 23.5549L18.2983 26.3913C18.5417 26.1493 18.871 26.0133 19.2143 26.0131L19.212 22.0131ZM15.4739 23.5589L14.4239 24.6089L17.2523 27.4373L18.3023 26.3873L15.4739 23.5589ZM14.4199 24.6129C14.2991 24.7344 14.1555 24.8308 13.9973 24.8966L15.5332 28.5899C16.1782 28.3217 16.7638 27.9287 17.2563 27.4333L14.4199 24.6129ZM13.9973 24.8966C13.8391 24.9624 13.6694 24.9962 13.4981 24.9962V28.9962C14.1966 28.9962 14.8883 28.8581 15.5332 28.5899L13.9973 24.8966ZM13.4981 24.9962C13.3268 24.9962 13.1571 24.9624 12.9989 24.8966L11.463 28.5899C12.108 28.8581 12.7996 28.9962 13.4981 28.9962V24.9962ZM12.9989 24.8966C12.8407 24.8308 12.6971 24.7344 12.5763 24.6129L9.73993 27.4333C10.2325 27.9287 10.8181 28.3217 11.463 28.5899L12.9989 24.8966ZM12.5723 24.6089L11.5223 23.5589L8.6939 26.3873L9.7439 27.4373L12.5723 24.6089ZM11.5183 23.5549C10.526 22.5682 9.18369 22.0139 7.78426 22.0131L7.78197 26.0131C8.12523 26.0133 8.45448 26.1493 8.69788 26.3913L11.5183 23.5549ZM7.78311 22.0131H6.28311V26.0131H7.78311V22.0131ZM6.28311 22.0131C5.93833 22.0131 5.60767 21.8762 5.36387 21.6324L2.53545 24.4608C3.52939 25.4547 4.87746 26.0131 6.28311 26.0131V22.0131ZM5.36387 21.6324C5.12008 21.3886 4.98311 21.0579 4.98311 20.7131H0.983114C0.983114 22.1188 1.54151 23.4668 2.53545 24.4608L5.36387 21.6324ZM4.98311 20.7131V19.2131H0.983114V20.7131H4.98311ZM4.98311 19.212C4.98231 17.8125 4.42806 16.4702 3.4413 15.4779L0.604932 18.2983C0.84697 18.5418 0.982918 18.871 0.983114 19.2143L4.98311 19.212ZM3.43733 15.4739L2.38733 14.4239L-0.441101 17.2523L0.608899 18.3023L3.43733 15.4739ZM2.38335 14.4199C2.26186 14.2991 2.16545 14.1555 2.09966 13.9973L-1.59371 15.5332C-1.32549 16.1782 -0.93243 16.7638 -0.43712 17.2563L2.38335 14.4199ZM2.09966 13.9973C2.03387 13.8391 2 13.6694 2 13.4981H-2C-2 14.1966 -1.86192 14.8882 -1.59371 15.5332L2.09966 13.9973ZM2 13.4981C2 13.3268 2.03387 13.1571 2.09966 12.9989L-1.59371 11.463C-1.86192 12.108 -2 12.7996 -2 13.4981H2ZM2.09966 12.9989C2.16545 12.8407 2.26186 12.6971 2.38335 12.5763L-0.43712 9.73993C-0.932429 10.2325 -1.32549 10.818 -1.59371 11.463L2.09966 12.9989ZM2.38733 12.5723L3.43733 11.5223L0.6089 8.6939L-0.4411 9.7439L2.38733 12.5723ZM3.4413 11.5183C4.42806 10.526 4.98231 9.18369 4.98311 7.78426L0.983114 7.78197C0.982918 8.12523 0.846969 8.45448 0.604932 8.69788L3.4413 11.5183ZM4.98311 7.78311V6.28311H0.983114V7.78311H4.98311Z" fill="#710000" mask="url(#path-4-inside-1)"/>
</svg>
