<svg width="156" height="50" viewBox="0 0 156 50" fill="none" xmlns="http://www.w3.org/2000/svg">
<path d="M153.891 3V1.5H152.391H3H1.5V3V46.023V47.523H3H152.391H153.891V46.023V3Z" stroke="white" stroke-width="3" stroke-miterlimit="10"/>
<path d="M29.68 36.2551L34.56 21.3651V36.2551H41.841V12.6951H32.011L27.277 24.3481L22.542 12.6951H12.71V36.2551H19.992V21.3651L24.911 36.2551H29.68Z" fill="white"/>
<path d="M110.327 26.5021C112.613 26.3181 114.897 24.7621 114.897 22.2021V16.9591C114.795 15.8048 114.268 14.7297 113.418 13.942C112.568 13.1544 111.456 12.7104 110.297 12.6961H91.427V36.2481H98.763V26.4281H101.328L106.465 36.2481H114.901L109.21 26.5011L110.327 26.5021ZM108.294 20.891C108.294 21.398 108.168 21.8451 107.257 21.8451H98.757V17.3121H107.267C108.302 17.3121 108.293 17.988 108.293 18.412L108.294 20.891Z" fill="white"/>
<path d="M64.667 17.3571V12.6951H45.473V36.2551L64.668 36.248V31.5951H52.768V26.679H64.661V22.0341H52.774V17.3581L64.667 17.3571Z" fill="white"/>
<path d="M74.404 17.3571H67.484V12.6951H88.606V17.355H81.687V36.248H74.405L74.404 17.3571Z" fill="white"/>
<path d="M138.318 12.6951H122.693C120.346 12.8821 118.365 14.0741 118.093 16.7371V31.985C118.192 33.1408 118.718 34.2183 119.569 35.007C120.419 35.7958 121.533 36.2394 122.693 36.2511H138.318C139.477 36.2392 140.59 35.7953 141.439 35.0064C142.288 34.2174 142.812 33.14 142.909 31.985V16.739C142.645 14.075 140.665 12.8841 138.318 12.6971V12.6951ZM135.561 30.5661C135.555 30.8411 135.444 31.1035 135.251 31.299C135.057 31.4946 134.796 31.6084 134.521 31.6171H126.555C126.275 31.6063 126.008 31.4935 125.806 31.2999C125.603 31.1063 125.478 30.8453 125.455 30.5661V18.248C125.488 17.982 125.614 17.4191 126.52 17.3291H134.528C135.435 17.4191 135.528 17.982 135.565 18.248L135.561 30.5661Z" fill="white"/>
</svg>
