<svg width="104" height="35" viewBox="0 0 104 35" fill="none" xmlns="http://www.w3.org/2000/svg">
<path d="M102.5 3V1.5H101H3H1.5V3V31.2229V32.7229H3H101H102.5V31.2229V3Z" stroke="white" stroke-width="3" stroke-miterlimit="10"/>
<path d="M20.5019 24.8156L23.7032 15.0478V24.8156H28.4795V9.36035H22.031L18.9255 17.0047L15.8194 9.36035H9.36963V24.8156H14.1466V15.0478L17.3734 24.8156H20.5019Z" fill="white"/>
<path d="M73.4061 18.4177C74.9057 18.297 76.404 17.2763 76.404 15.5969V12.1575C76.3369 11.4003 75.991 10.6951 75.4335 10.1784C74.876 9.66167 74.1465 9.3704 73.3864 9.36101H61.0077V24.811H65.8201V18.3692H67.5027L70.8726 24.811H76.4066L72.6733 18.417L73.4061 18.4177ZM72.0724 14.7369C72.0724 15.0695 71.9898 15.3627 71.3921 15.3627H65.8162V12.3891H71.3987C72.0777 12.3891 72.0718 12.8325 72.0718 13.1107L72.0724 14.7369Z" fill="white"/>
<path d="M43.4532 12.4186V9.36035H30.862V24.8156L43.4539 24.811V21.7587H35.6475V18.5338H43.4493V15.4867H35.6515V12.4193L43.4532 12.4186Z" fill="white"/>
<path d="M49.8407 12.4186H45.3012V9.36035H59.1572V12.4173H54.6183V24.811H49.8413L49.8407 12.4186Z" fill="white"/>
<path d="M91.7681 9.36035H81.5181C79.9785 9.48302 78.679 10.265 78.5005 12.0119V22.0145C78.5654 22.7727 78.9105 23.4795 79.4685 23.9969C80.0264 24.5144 80.7572 24.8053 81.5181 24.813H91.7681C92.5284 24.8052 93.2584 24.5141 93.8154 23.9965C94.3724 23.4789 94.7162 22.7722 94.7797 22.0145V12.0132C94.6066 10.2656 93.3077 9.48432 91.7681 9.36165V9.36035ZM89.9595 21.0837C89.9557 21.2641 89.8828 21.4362 89.7559 21.5645C89.6289 21.6928 89.4576 21.7674 89.2772 21.7731H84.0516C83.8679 21.7661 83.6931 21.6921 83.5602 21.5651C83.4272 21.4381 83.3454 21.2669 83.33 21.0837V13.0031C83.3516 12.8286 83.4343 12.4593 84.0286 12.4002H89.2818C89.8768 12.4593 89.9378 12.8286 89.9621 13.0031L89.9595 21.0837Z" fill="white"/>
</svg>
