<svg width="37" height="37" viewBox="0 0 37 37" fill="none" xmlns="http://www.w3.org/2000/svg">
<path d="M18.3809 16.3081C21.4184 16.3081 23.8809 13.8457 23.8809 10.8081C23.8809 7.77054 21.4184 5.30811 18.3809 5.30811C15.3433 5.30811 12.8809 7.77054 12.8809 10.8081C12.8809 13.8457 15.3433 16.3081 18.3809 16.3081Z" stroke="black" stroke-linecap="round" stroke-linejoin="round"/>
<path d="M28.667 11.333C28.667 17.041 18.334 32.689 18.334 32.689C18.334 32.689 8.00098 17.041 8.00098 11.333C8.00098 8.59251 9.08965 5.96427 11.0275 4.02646C12.9653 2.08865 15.5935 1 18.334 1C21.0745 1 23.7027 2.08865 25.6405 4.02646C27.5783 5.96427 28.667 8.59251 28.667 11.333V11.333Z" stroke="black" stroke-linecap="round" stroke-linejoin="round"/>
<path d="M25.87 29.9399C31.67 30.4279 35.67 31.4589 35.67 32.6549C35.67 34.3209 27.91 35.6699 18.335 35.6699C8.75999 35.6699 1 34.3209 1 32.6549C1 31.4639 4.97198 30.4349 10.734 29.9449" stroke="black" stroke-linecap="round" stroke-linejoin="round"/>
</svg>
