<svg width="37" height="37" viewBox="0 0 37 37" fill="none" xmlns="http://www.w3.org/2000/svg">
<path d="M17.3379 10C19.8232 10 21.8379 7.98528 21.8379 5.5C21.8379 3.01472 19.8232 1 17.3379 1C14.8526 1 12.8379 3.01472 12.8379 5.5C12.8379 7.98528 14.8526 10 17.3379 10Z" stroke="black" stroke-linecap="round" stroke-linejoin="round"/>
<path d="M17.8379 10V27" stroke="black" stroke-linecap="round" stroke-linejoin="round"/>
<path d="M13.059 18.858L11.552 19.192L1 16.177V32.758L11.551 35.777L25.117 32.762L35.669 35.777V19.192L25.118 16.177L22.103 16.847" stroke="black" stroke-linecap="round" stroke-linejoin="round"/>
<path d="M11.8379 19V36" stroke="black" stroke-linejoin="round"/>
<path d="M24.8379 16V33" stroke="black" stroke-linejoin="round"/>
<path d="M17.5811 4.11792C17.9807 4.11818 18.3638 4.27704 18.6464 4.5596C18.9289 4.84216 19.0878 5.22531 19.0881 5.62491" stroke="black" stroke-linecap="round" stroke-linejoin="round"/>
</svg>
