<svg width="35" height="37" viewBox="0 0 35 37" fill="none" xmlns="http://www.w3.org/2000/svg">
<path d="M19.0887 16.074L26.6257 13.059V3.26099L19.0887 5.52197L11.5518 3.26099V13.061L19.0887 16.074Z" stroke="black" stroke-linecap="round" stroke-linejoin="round"/>
<path d="M26.6248 3.26099L19.0878 1L11.5508 3.26099" stroke="black" stroke-linecap="round" stroke-linejoin="round"/>
<path d="M19.0879 5.46704V16.018" stroke="black" stroke-linecap="round" stroke-linejoin="round"/>
<path d="M28.1316 28.8879L34.1615 25.8729V19.0879L28.1316 21.3489L22.1025 19.0879V25.8708L28.1316 28.8879Z" stroke="black" stroke-linecap="round" stroke-linejoin="round"/>
<path d="M34.1615 19.0879L28.1316 16.8269L22.1025 19.0879" stroke="black" stroke-linecap="round" stroke-linejoin="round"/>
<path d="M28.1318 21.2939V28.8309" stroke="black" stroke-linecap="round" stroke-linejoin="round"/>
<path d="M10.0439 35.6689L19.088 32.6539V20.5959L10.0439 23.611L1 20.5959V32.6549L10.0439 35.6689Z" stroke="black" stroke-linecap="round" stroke-linejoin="round"/>
<path d="M19.088 20.5961L10.0439 17.5811L1 20.5961" stroke="black" stroke-linecap="round" stroke-linejoin="round"/>
<path d="M10.0439 23.5549V35.6139" stroke="black" stroke-linecap="round" stroke-linejoin="round"/>
</svg>
