<svg width="40" height="40" viewBox="0 0 40 40" fill="none" xmlns="http://www.w3.org/2000/svg">
<path d="M21.8489 19.7252C22.0482 19.7252 22.2475 19.7319 22.4461 19.7239C23.5151 19.6794 24.5635 19.5143 25.5806 19.1795C26.6673 18.8218 27.5983 18.2141 28.4311 17.4487C29.5949 16.3795 30.4871 15.1083 31.2734 13.7561C32.0079 12.4929 32.6236 11.1718 33.2413 9.85127C33.6352 9.01048 34.0427 8.17575 34.4686 7.35113C34.9792 6.36212 35.7935 5.72479 36.8782 5.42903C37.4304 5.27879 37.9881 5.23163 38.5403 5.41555C39.3512 5.68504 39.7655 6.28532 39.9403 7.08366C40.083 7.73582 39.9492 8.36304 39.758 8.97747C39.298 10.4596 38.842 11.9445 38.3382 13.4125C37.7137 15.2336 37.0051 17.0256 36.199 18.7766C35.7724 19.7036 35.356 20.6415 34.7185 21.4513C33.797 22.6208 32.7369 23.659 31.5751 24.5995C29.8939 25.9597 28.0325 27.0175 26.0379 27.8549C24.6598 28.4336 23.2441 28.9059 21.7888 29.2542C20.6222 29.5331 19.4489 29.7831 18.2769 30.0377C17.4195 30.2243 16.5567 30.3894 15.7001 30.5787C14.9943 30.735 14.3834 31.0934 13.8107 31.5138C12.7649 32.2812 11.9622 33.2628 11.2953 34.3576C10.5888 35.5177 10.0509 36.7519 9.65095 38.0461C9.60043 38.2105 9.56357 38.3803 9.50351 38.5413C9.34719 38.9597 8.90146 39.178 8.48303 39.0513C8.05368 38.9206 7.79293 38.4935 7.90078 38.0623C8.1117 37.2188 8.40999 36.4036 8.75539 35.6053C9.25231 34.4566 9.85572 33.3652 10.6161 32.3647C11.655 30.9978 12.8926 29.8558 14.5233 29.2144C15.1021 28.9867 15.7226 28.854 16.3335 28.7179C17.169 28.532 18.0161 28.3972 18.853 28.2167C19.7963 28.0139 20.7397 27.8071 21.6721 27.5632C23.5922 27.0613 25.4468 26.3808 27.2031 25.4585C28.4987 24.7787 29.7123 23.977 30.8325 23.0378C31.7348 22.2813 32.5553 21.4492 33.2994 20.5424C33.6973 20.0573 33.9888 19.5076 34.2625 18.9498C35.1813 17.0755 35.926 15.1305 36.6331 13.172C37.0161 12.1123 37.371 11.0424 37.7178 9.96985C37.9219 9.33925 38.098 8.69923 38.2584 8.0565C38.3116 7.84294 38.3027 7.60579 38.2782 7.38414C38.2447 7.08097 38.0386 6.92534 37.7287 6.96172C37.0352 7.04324 36.4352 7.31071 36.0809 7.93591C35.7478 8.52271 35.4379 9.12367 35.1505 9.73338C34.3717 11.3894 33.6263 13.0615 32.6953 14.6434C31.9662 15.8817 31.1492 17.058 30.1506 18.1022C29.1314 19.168 27.971 20.0459 26.5765 20.5842C25.3253 21.0672 24.0175 21.2976 22.6796 21.3744C21.9949 21.4135 21.3151 21.3926 20.6468 21.2256C20.4898 21.1865 20.3328 21.1265 20.1936 21.0464C19.7171 20.7742 19.5451 20.2298 19.7595 19.7279C20.0031 19.1579 20.4161 18.7099 20.8591 18.2942C21.8168 17.3962 22.7902 16.5143 23.7574 15.6263C24.1123 15.3003 24.4352 14.9513 24.5936 14.4864C24.756 14.0108 24.7874 13.5372 24.5369 13.0763C24.3574 12.7469 24.0659 12.6054 23.6987 12.6169C23.2782 12.6303 22.8919 12.7752 22.5506 13.0049C22.1547 13.271 21.7745 13.5621 21.4018 13.8599C20.4516 14.6178 19.4031 15.216 18.283 15.6809C16.9513 16.2334 15.6004 16.7427 14.2571 17.2675C13.141 17.7034 12.0182 18.1224 10.9622 18.6937C10.0844 19.1687 9.33832 19.7959 8.67962 20.5357C7.49259 21.8696 6.50215 23.3397 5.57109 24.8515C4.39635 26.7588 3.33629 28.728 2.34312 30.7323C2.09124 31.2403 1.85301 31.7543 1.60455 32.2643C1.43117 32.6207 1.01138 32.8175 0.649604 32.7198C0.242097 32.61 -0.0329878 32.2529 0.00318963 31.8588C0.0141111 31.7382 0.0502885 31.6135 0.102165 31.503C1.21274 29.1477 2.41137 26.8369 3.75335 24.6009C4.7472 22.9442 5.81683 21.3387 7.05505 19.8451C8.20044 18.464 9.5704 17.3787 11.2468 16.6975C12.6489 16.1283 14.0625 15.5866 15.4735 15.0382C16.5806 14.6077 17.6844 14.1718 18.7328 13.6113C19.4612 13.2219 20.1287 12.7516 20.7567 12.2187C21.3663 11.702 22.0461 11.2903 22.8311 11.0828C23.8728 10.8079 24.8379 10.9346 25.6134 11.733C26.2748 12.4134 26.4891 13.2596 26.3847 14.1819C26.2659 15.2255 25.7608 16.0723 24.9833 16.775C24.0973 17.5754 23.2154 18.3805 22.3342 19.1856C22.1594 19.3452 21.9956 19.517 21.827 19.6834C21.8366 19.6996 21.8427 19.7124 21.8489 19.7252Z" fill="white"/>
<path d="M33.7066 6.63349C33.6629 6.45833 33.6234 6.29327 33.5804 6.12888C33.3967 5.41744 33.1681 4.72217 32.835 4.0626C32.7817 3.95751 32.7148 3.91641 32.5974 3.90293C31.1551 3.73855 29.7135 3.5681 28.2718 3.40102C27.3667 3.29592 26.4609 3.19486 25.5558 3.09044C24.9483 3.02037 24.3422 2.94626 23.7346 2.87552C22.8514 2.77244 21.9674 2.67139 21.0841 2.56898C20.179 2.46321 19.2739 2.35542 18.3688 2.25032C17.3176 2.1277 16.2657 2.00711 15.2138 1.88516C14.7313 1.82925 14.2493 1.76726 13.7661 1.7201C13.7026 1.71404 13.607 1.76457 13.5688 1.81847C13.25 2.2611 12.9135 2.69564 12.6343 3.16252C11.9347 4.33142 11.4207 5.58385 10.9907 6.87064C10.9053 7.12598 10.82 7.38199 10.736 7.638C10.7265 7.66697 10.7251 7.69863 10.7162 7.75455C18.1811 7.75455 25.6343 7.75455 33.1019 7.75455C33.093 7.80508 33.0937 7.8327 33.0834 7.85493C32.8657 8.31912 32.6438 8.78129 32.4309 9.24817C32.3715 9.37752 32.2971 9.42671 32.1469 9.42671C24.9121 9.42266 17.678 9.42334 10.4432 9.42064C10.3149 9.42064 10.2651 9.45702 10.2398 9.5857C10.0514 10.5289 9.91284 11.4768 9.93127 12.4409C9.95311 13.5828 10.1552 14.6911 10.6159 15.7441C10.6623 15.8499 10.6432 15.891 10.5442 15.9422C10.1101 16.1679 9.68007 16.4017 9.24799 16.6321C9.23434 16.6395 9.21728 16.6395 9.17564 16.6476C9.10055 16.4684 9.02001 16.2878 8.94902 16.1045C8.24526 14.2788 8.10397 12.3971 8.38042 10.4743C8.64663 8.62499 9.16403 6.84234 9.83707 5.10147C10.2951 3.91641 10.8412 2.77312 11.5483 1.70933C11.8876 1.19865 12.2671 0.720315 12.7053 0.287791C12.9292 0.0668135 13.1879 -0.0302012 13.5053 0.00820046C14.5722 0.138227 15.6398 0.264885 16.708 0.388848C17.5538 0.48721 18.4002 0.578835 19.2452 0.676524C20.3674 0.80655 21.4889 0.940619 22.6111 1.07132C24.4104 1.28084 26.2104 1.48902 28.0104 1.69787C29.7776 1.90268 31.5449 2.10682 33.3121 2.31162C33.624 2.34801 33.8602 2.49016 34.0281 2.76099C34.48 3.48793 34.7899 4.27348 35.0404 5.08463C35.0548 5.13179 35.035 5.22206 34.9995 5.24699C34.48 5.60675 34.0827 6.07296 33.764 6.60924C33.7592 6.61598 33.7449 6.61732 33.7066 6.63349Z" fill="white"/>
<path d="M20.745 30.5322C20.7191 30.7835 20.6979 31.0173 20.6706 31.2497C20.5293 32.4375 20.3873 33.6246 20.2447 34.8123C20.2249 34.9781 20.2044 35.1438 20.1791 35.3088C20.1668 35.3924 20.1976 35.4254 20.2808 35.4348C21.0508 35.5244 21.8201 35.6174 22.5894 35.7077C23.2993 35.7912 24.0098 35.8687 24.719 35.9603C24.932 35.988 25.1566 36.0176 25.3457 36.1085C25.704 36.281 25.8494 36.7088 25.7184 37.0807C25.5866 37.4553 25.1962 37.6844 24.8044 37.6372C23.8781 37.526 22.9504 37.425 22.0235 37.3172C20.9559 37.1926 19.8883 37.0639 18.8208 36.9392C17.0645 36.7344 15.3095 36.5202 13.5518 36.3322C12.8849 36.2608 12.5696 35.6908 12.758 35.1916C12.8897 34.8426 13.2631 34.6122 13.6392 34.656C14.9348 34.8069 16.2303 34.9578 17.5252 35.1094C17.7907 35.1404 18.0576 35.1627 18.3204 35.2112C18.4638 35.2374 18.4986 35.1963 18.5136 35.065C18.6262 34.0962 18.745 33.128 18.8617 32.1599C18.9075 31.7799 18.9484 31.4 19.001 31.0213C19.0085 30.9668 19.0638 30.8853 19.1109 30.8745C19.6419 30.7566 20.1757 30.6501 20.745 30.5322Z" fill="white"/>
</svg>
